<svg width="101" height="100" viewBox="0 0 101 100" fill="none" xmlns="http://www.w3.org/2000/svg">
<path d="M78.0785 62.3125C77.102 60.5391 78.3442 58.7344 80.4691 56.5C83.8363 52.9531 87.5004 44.7266 84.0941 36.375C84.1176 36.3281 83.4223 34.9219 83.4457 34.875L82.0473 34.8047C81.602 34.7422 66.2192 34.7109 50.8207 34.7109C35.4223 34.7109 20.0395 34.7422 19.5941 34.8047C19.5941 34.8047 17.5238 36.3281 17.5395 36.375C14.141 44.7266 17.7973 52.9531 21.1645 56.5C23.2816 58.7344 24.5238 60.5391 23.5551 62.3125C22.6098 64.0391 19.7973 64.2891 19.7973 64.2891C19.7973 64.2891 20.4457 66.0547 22.0082 67.0078C23.4535 67.8906 25.2348 68.0937 26.4613 68.125C26.4613 68.125 31.266 74.7734 43.8285 74.7734H57.8129C70.3754 74.7734 75.1801 68.125 75.1801 68.125C76.4067 68.0937 78.1879 67.8906 79.6332 67.0078C81.1957 66.0547 81.8442 64.2891 81.8442 64.2891C81.8442 64.2891 79.0238 64.0313 78.0785 62.3125Z" fill="#312D2D"/>
<path d="M50.8051 74.7656V67.3906L73.1254 65.625L75.1566 68.125C75.1566 68.125 70.3519 74.7734 57.7894 74.7734L50.8051 74.7656Z" fill="url(#paint0_radial_29_316)"/>
<path d="M75.1097 64.8984C71.766 59.8203 79.18 57.9219 79.18 57.9219L79.1878 57.9297C77.8988 59.5313 77.3128 60.9297 78.0706 62.3125C79.016 64.0391 81.8285 64.2891 81.8285 64.2891C81.8285 64.2891 77.9925 67.6953 75.1097 64.8984Z" fill="url(#paint1_radial_29_316)"/>
<path d="M84.1097 36.375C87.4301 44.4609 83.9379 52.7891 80.6644 56.3047C80.2191 56.7891 78.3129 58.6562 77.8754 60.1484C77.8754 60.1484 70.4222 49.75 68.1957 43.6406C67.7504 42.4062 67.3363 41.1406 67.2816 39.8281C67.2426 38.8437 67.391 37.6719 67.9613 36.8359C68.6566 35.8125 83.7113 35.5078 83.7113 35.5078C83.7113 35.5156 84.1097 36.375 84.1097 36.375Z" fill="url(#paint2_radial_29_316)"/>
<path d="M17.5316 36.375C14.2113 44.4609 17.7035 52.7891 20.9769 56.3047C21.43 56.7891 23.3285 58.6562 23.766 60.1484C23.766 60.1484 31.2191 49.75 33.4457 43.6406C33.8988 42.4062 34.305 41.1406 34.3597 39.8281C34.3988 38.8437 34.2504 37.6719 33.68 36.8359C32.9847 35.8125 32.1722 36.0859 30.9926 36.0859C28.7426 36.0859 18.891 35.5078 18.1254 35.5078C18.1332 35.5156 17.5316 36.375 17.5316 36.375Z" fill="url(#paint3_radial_29_316)"/>
<path d="M50.8363 74.7656V67.3906L28.516 65.625L26.4847 68.125C26.4847 68.125 31.2894 74.7734 43.8519 74.7734L50.8363 74.7656Z" fill="url(#paint4_radial_29_316)"/>
<path d="M26.5316 64.8984C29.8754 59.8203 22.4613 57.9219 22.4613 57.9219L22.4535 57.9297C23.7426 59.5313 24.3285 60.9297 23.5707 62.3125C22.6254 64.0391 19.8129 64.2891 19.8129 64.2891C19.8129 64.2891 23.6488 67.6953 26.5316 64.8984Z" fill="url(#paint5_radial_29_316)"/>
<path d="M58.4535 87.5312V69.7266H43.1644V87.5312H58.4535ZM72.1644 39.3281H29.4613C24.8597 39.3281 21.0941 43.3359 21.0941 48.2422C21.0941 53.1484 24.8597 57.1563 29.4613 57.1563H72.1566C76.7582 57.1563 80.5238 53.1406 80.5238 48.2422C80.5316 43.3438 76.766 39.3281 72.1644 39.3281Z" fill="#EDC391"/>
<path d="M50.8129 8.57812C37.2191 8.57812 24.6254 23.1172 24.6254 44.0469C24.6254 64.8594 37.6019 75.1484 50.8129 75.1484C64.0238 75.1484 77.0004 64.8594 77.0004 44.0469C77.0004 23.1172 64.4066 8.57812 50.8129 8.57812Z" fill="#F9DDBD"/>
<path d="M43.6254 38.8438C42.8988 37.8828 41.2269 36.4922 37.9769 36.4922C34.7269 36.4922 33.0472 37.8906 32.3285 38.8438C32.0082 39.2656 32.0863 39.7578 32.3129 40.0547C32.516 40.3281 33.1254 40.5859 33.7972 40.3594C34.4691 40.1328 35.7816 39.4531 37.9769 39.4375C40.1722 39.4531 41.4847 40.1328 42.1566 40.3594C42.8285 40.5859 43.4379 40.3359 43.641 40.0547C43.8597 39.7656 43.9457 39.2734 43.6254 38.8438ZM69.305 38.8438C68.5785 37.8828 66.9066 36.4922 63.6566 36.4922C60.4066 36.4922 58.7269 37.8906 58.0082 38.8438C57.6879 39.2656 57.766 39.7578 57.9925 40.0547C58.1957 40.3281 58.805 40.5859 59.4769 40.3594C60.1488 40.1328 61.4613 39.4531 63.6566 39.4375C65.8519 39.4531 67.1644 40.1328 67.8363 40.3594C68.5082 40.5859 69.1175 40.3359 69.3207 40.0547C69.5394 39.7656 69.6254 39.2734 69.305 38.8438Z" fill="#454140"/>
<path d="M37.9691 49.8594C40.0963 49.8594 41.8207 48.0755 41.8207 45.875C41.8207 43.6745 40.0963 41.8906 37.9691 41.8906C35.842 41.8906 34.1176 43.6745 34.1176 45.875C34.1176 48.0755 35.842 49.8594 37.9691 49.8594Z" fill="#312D2D"/>
<path d="M63.6566 49.8594C65.7838 49.8594 67.5082 48.0755 67.5082 45.875C67.5082 43.6745 65.7838 41.8906 63.6566 41.8906C61.5295 41.8906 59.8051 43.6745 59.8051 45.875C59.8051 48.0755 61.5295 49.8594 63.6566 49.8594Z" fill="#312D2D"/>
<path d="M57.391 59.4141C54.9066 60.8907 46.7425 60.8907 44.2582 59.4141C42.8285 58.5625 41.3675 59.8672 41.9613 61.1641C42.5472 62.4375 46.9925 65.3985 50.8441 65.3985C54.6957 65.3985 59.0863 62.4375 59.6722 61.1641C60.2582 59.8672 58.8207 58.5625 57.391 59.4141Z" fill="#444444"/>
<path d="M53.8285 53.0938C53.7426 53.0625 53.6644 53.0391 53.5785 53.0312H48.0472C47.9613 53.0391 47.8754 53.0625 47.7972 53.0938C47.2972 53.2969 47.0238 53.8125 47.2582 54.3672C47.4926 54.9219 48.5941 56.4688 50.8129 56.4688C53.0316 56.4688 54.1332 54.9141 54.3676 54.3672C54.6019 53.8203 54.3285 53.2969 53.8285 53.0938Z" fill="#DBA689"/>
<path d="M78.3676 18.3203C77.7504 14.6328 67.5472 8.07025 63.7269 6.85932C53.3832 3.58588 46.6566 4.914 43.0472 6.88275C42.2972 7.289 37.4457 9.98432 34.0551 8.05463C31.9301 6.84369 25.8285 16.5234 22.7582 18.3749C19.1722 20.539 19.4847 24.4765 20.0316 26.0078C18.0629 27.6796 15.5863 31.2343 17.2816 35.8515C18.5629 39.3281 23.6644 40.9296 23.6644 40.9296C23.1801 49.3203 25.4457 53.3906 25.4457 53.3906C25.4457 53.3906 29.1097 38.9765 28.8051 36.7734C28.8051 36.7734 34.8676 35.5703 41.7504 31.6328C46.3988 28.9687 49.5785 25.8515 54.8051 24.6718C62.7582 22.8828 64.5316 28.6406 64.5316 28.6406C64.5316 28.6406 71.891 27.2265 74.1097 37.4453C75.0238 41.6484 75.6176 48.6171 76.1176 52.8906C76.0707 52.5156 78.6488 47.9453 79.1332 43.2578C79.2582 42.0468 82.5238 40.4453 83.9301 35.2421C85.8051 28.3046 83.7426 20.789 78.3676 18.3203Z" fill="#312D2D"/>
<path d="M83.9379 35.2344C82.766 39.5547 80.3207 41.3906 79.4457 42.5859C78.2426 35.2656 78.4301 28.3125 69.516 20.0781C69.516 20.0781 71.3051 19.6953 72.1801 18.1016C72.8597 16.8594 72.6019 15.3125 72.6019 15.3125C72.8988 15.3281 73.2035 15.3594 73.516 15.3984C75.0472 15.6797 76.6097 16.4297 78.0394 17.3906C78.2113 17.7187 78.3207 18.0313 78.3675 18.3203C83.7425 20.7813 85.8129 28.2969 83.9379 35.2344Z" fill="url(#paint6_radial_29_316)"/>
<path d="M19.8519 26.1641C18.0004 27.8047 15.5082 31.4687 17.3441 36.0156C18.7269 39.4453 23.6644 40.9297 23.6644 40.9297C23.6644 40.9453 24.6488 41.2422 25.1566 41.2422L26.3129 24.1328C23.9457 24.1328 21.6723 24.8438 20.2035 25.8672C20.2269 25.8906 19.8441 26.1406 19.8519 26.1641Z" fill="url(#paint7_radial_29_316)"/>
<path d="M26.3519 24.1406V24.1016C23.9847 24.1016 21.7191 24.8125 20.2425 25.8281C20.2425 25.8516 20.1253 25.9375 20.0316 26.0078V26C20.0394 25.9922 20.055 25.9844 20.0628 25.9766C19.516 24.4453 19.1957 20.5078 22.7894 18.3437C23.1332 18.1328 23.516 17.8281 23.93 17.4453C24.8832 17.0547 25.8988 16.8281 26.8363 16.7344C27.1097 16.7109 27.6097 16.6719 27.7582 16.6719L31.516 17.1328L26.3519 24.1406Z" fill="url(#paint8_radial_29_316)"/>
<path d="M91.9613 41.6406C90.9926 41.6406 90.2035 42.3906 90.2035 43.3125V50.5C90.2035 51.4219 90.9926 52.1719 91.9613 52.1719C92.9301 52.1719 93.7191 51.4219 93.7191 50.5V43.3125C93.7191 42.3906 92.9301 41.6406 91.9613 41.6406ZM88.4457 41.6406C87.4769 41.6406 86.6879 42.3906 86.6879 43.3125V50.5C86.6879 51.4219 87.4769 52.1719 88.4457 52.1719C89.4144 52.1719 90.2035 51.4219 90.2035 50.5V43.3125C90.2035 42.3906 89.4144 41.6406 88.4457 41.6406Z" fill="#E8AD00"/>
<path d="M90.2035 41.6406C89.2347 41.6406 88.4457 42.3906 88.4457 43.3125V52.0547C88.4457 52.9766 89.2347 53.7266 90.2035 53.7266C91.1722 53.7266 91.9613 52.9766 91.9613 52.0547V43.3125C91.9613 42.3906 91.1722 41.6406 90.2035 41.6406Z" fill="#FFCA28"/>
<path d="M90.2035 42.7344C91.3944 42.7344 92.3597 41.8145 92.3597 40.6797C92.3597 39.5449 91.3944 38.625 90.2035 38.625C89.0126 38.625 88.0472 39.5449 88.0472 40.6797C88.0472 41.8145 89.0126 42.7344 90.2035 42.7344Z" fill="#FFCA28"/>
<path d="M90.2035 40.6562C89.7738 40.6562 89.4222 40.3047 89.4222 39.875V10.1875C89.4222 9.75781 89.7738 9.40625 90.2035 9.40625C90.6332 9.40625 90.9847 9.75781 90.9847 10.1875V39.875C90.9847 40.3047 90.6332 40.6562 90.2035 40.6562Z" fill="#504F4F"/>
<path d="M90.9847 9.375C66.8988 3.32031 50.3597 3.125 50.3597 3.125C50.3597 3.125 33.8207 3.32031 9.73474 9.375V9.97656C9.73474 11.0156 10.4144 11.9297 11.4066 12.2188C14.3129 13.0781 20.3676 14.8281 24.3207 15.625C24.3207 15.625 23.4535 16.9609 22.7582 18.375C22.7582 18.375 30.5316 23 50.3597 25C70.1879 23 78.3676 18.3203 78.3676 18.3203C77.6801 16.9063 76.8207 15.625 76.8207 15.625C80.3363 15.0469 86.4457 13.1719 89.3519 12.25C90.3285 11.9375 90.9847 11.0391 90.9847 10.0156V9.375Z" fill="url(#paint9_linear_29_316)"/>
<path d="M50.3597 3.125C50.3597 3.125 33.8207 3.32031 9.73474 9.375C9.73474 9.375 37.3988 16.9297 50.3597 16.7031C63.3207 16.9297 90.9847 9.375 90.9847 9.375C66.891 3.32031 50.3597 3.125 50.3597 3.125Z" fill="url(#paint10_linear_29_316)"/>
<path opacity="0.4" d="M90.9847 9.375C66.8988 3.32031 50.3597 3.125 50.3597 3.125C50.3597 3.125 33.8207 3.32031 9.73474 9.375V9.97656C9.73474 11.0156 10.4144 11.9297 11.4066 12.2188C14.3129 13.0781 20.3676 14.8281 24.3207 15.625C24.3207 15.625 23.4535 16.9609 22.7582 18.375C22.7582 18.375 30.5316 23 50.3597 25C70.1879 23 78.3676 18.3203 78.3676 18.3203C77.6801 16.9063 76.8207 15.625 76.8207 15.625C80.3363 15.0469 86.4457 13.1719 89.3519 12.25C90.3285 11.9375 90.9847 11.0391 90.9847 10.0156V9.375Z" fill="url(#paint11_linear_29_316)"/>
<path d="M90.266 94.5234C90.266 83.1094 73.2738 77.6953 58.4535 76.4766L51.7347 85.0937C51.516 85.375 51.1722 85.5469 50.8129 85.5469C50.4535 85.5469 50.1097 85.3828 49.891 85.0937L43.1566 76.4609C34.9144 77.0938 11.3519 80.1719 11.3519 94.5234V96.875H90.2582L90.266 94.5234Z" fill="#212121"/>
<path d="M90.266 94.5234C90.266 83.1094 73.2738 77.6953 58.4535 76.4766L51.7347 85.0937C51.516 85.375 51.1722 85.5469 50.8129 85.5469C50.4535 85.5469 50.1097 85.3828 49.891 85.0937L43.1566 76.4609C34.9144 77.0938 11.3519 80.1719 11.3519 94.5234V96.875H90.2582L90.266 94.5234Z" fill="url(#paint12_radial_29_316)"/>
<defs>
<radialGradient id="paint0_radial_29_316" cx="0" cy="0" r="1" gradientUnits="userSpaceOnUse" gradientTransform="translate(62.2058 64.108) scale(18.2961 8.98704)">
<stop offset="0.728" stop-color="#454140" stop-opacity="0"/>
<stop offset="1" stop-color="#454140"/>
</radialGradient>
<radialGradient id="paint1_radial_29_316" cx="0" cy="0" r="1" gradientUnits="userSpaceOnUse" gradientTransform="translate(80.2279 61.3862) rotate(154.924) scale(5.40676 4.01104)">
<stop offset="0.663" stop-color="#454140"/>
<stop offset="1" stop-color="#454140" stop-opacity="0"/>
</radialGradient>
<radialGradient id="paint2_radial_29_316" cx="0" cy="0" r="1" gradientUnits="userSpaceOnUse" gradientTransform="translate(66.2154 46.0935) rotate(-94.2783) scale(23.7489 19.7932)">
<stop offset="0.725" stop-color="#454140" stop-opacity="0"/>
<stop offset="1" stop-color="#454140"/>
</radialGradient>
<radialGradient id="paint3_radial_29_316" cx="0" cy="0" r="1" gradientUnits="userSpaceOnUse" gradientTransform="translate(35.4285 46.0931) rotate(-85.7217) scale(23.7489 19.7932)">
<stop offset="0.725" stop-color="#454140" stop-opacity="0"/>
<stop offset="1" stop-color="#454140"/>
</radialGradient>
<radialGradient id="paint4_radial_29_316" cx="0" cy="0" r="1" gradientUnits="userSpaceOnUse" gradientTransform="translate(39.4371 64.108) rotate(180) scale(18.2961 8.98704)">
<stop offset="0.728" stop-color="#454140" stop-opacity="0"/>
<stop offset="1" stop-color="#454140"/>
</radialGradient>
<radialGradient id="paint5_radial_29_316" cx="0" cy="0" r="1" gradientUnits="userSpaceOnUse" gradientTransform="translate(21.4172 61.3867) rotate(25.0761) scale(5.40676 4.01104)">
<stop offset="0.663" stop-color="#454140"/>
<stop offset="1" stop-color="#454140" stop-opacity="0"/>
</radialGradient>
<radialGradient id="paint6_radial_29_316" cx="0" cy="0" r="1" gradientUnits="userSpaceOnUse" gradientTransform="translate(65.5557 33.9544) rotate(72.0851) scale(26.4652 19.6366)">
<stop offset="0.699" stop-color="#454140" stop-opacity="0"/>
<stop offset="1" stop-color="#454140"/>
</radialGradient>
<radialGradient id="paint7_radial_29_316" cx="0" cy="0" r="1" gradientUnits="userSpaceOnUse" gradientTransform="translate(30.9189 33.8275) rotate(7.83355) scale(13.1926 18.5378)">
<stop offset="0.598" stop-color="#454140" stop-opacity="0"/>
<stop offset="1" stop-color="#454140"/>
</radialGradient>
<radialGradient id="paint8_radial_29_316" cx="0" cy="0" r="1" gradientUnits="userSpaceOnUse" gradientTransform="translate(29.7854 25.1747) rotate(-164.942) scale(10.1105 9.46162)">
<stop offset="0.66" stop-color="#454140" stop-opacity="0"/>
<stop offset="1" stop-color="#454140"/>
</radialGradient>
<linearGradient id="paint9_linear_29_316" x1="50.3574" y1="-0.260156" x2="50.3574" y2="22.1148" gradientUnits="userSpaceOnUse">
<stop offset="0.003" stop-color="#424242"/>
<stop offset="0.472" stop-color="#353535"/>
<stop offset="1" stop-color="#212121"/>
</linearGradient>
<linearGradient id="paint10_linear_29_316" x1="50.3574" y1="-0.130468" x2="50.3574" y2="24.0883" gradientUnits="userSpaceOnUse">
<stop offset="0.003" stop-color="#616161"/>
<stop offset="0.324" stop-color="#505050"/>
<stop offset="0.955" stop-color="#242424"/>
<stop offset="1" stop-color="#212121"/>
</linearGradient>
<linearGradient id="paint11_linear_29_316" x1="11.2105" y1="14.0617" x2="89.9824" y2="14.0617" gradientUnits="userSpaceOnUse">
<stop offset="0.001" stop-color="#BFBEBE"/>
<stop offset="0.3" stop-color="#212121" stop-opacity="0"/>
<stop offset="0.7" stop-color="#212121" stop-opacity="0"/>
<stop offset="1" stop-color="#BFBEBE"/>
</linearGradient>
<radialGradient id="paint12_radial_29_316" cx="0" cy="0" r="1" gradientUnits="userSpaceOnUse" gradientTransform="translate(50.8129 95.7837) scale(42.318 22.2042)">
<stop offset="0.598" stop-color="#212121"/>
<stop offset="1" stop-color="#616161"/>
</radialGradient>
</defs>
</svg>
